<mxfile host="65bd71144e" pages="2">
    <diagram id="NSisv_5Uf6d7Fq7L4mC0" name="Client Server Model">
        <mxGraphModel dx="1436" dy="790" grid="1" gridSize="10" guides="1" tooltips="1" connect="1" arrows="1" fold="1" page="1" pageScale="1" pageWidth="827" pageHeight="1169" math="0" shadow="0">
            <root>
                <mxCell id="0"/>
                <mxCell id="1" parent="0"/>
                <mxCell id="-Jtr6x9caaN1-tioL6mh-16" style="edgeStyle=orthogonalEdgeStyle;rounded=0;orthogonalLoop=1;jettySize=auto;html=1;exitX=1;exitY=0.75;exitDx=0;exitDy=0;entryX=0;entryY=0.75;entryDx=0;entryDy=0;fontSize=15;" parent="1" source="-Jtr6x9caaN1-tioL6mh-3" target="-Jtr6x9caaN1-tioL6mh-5" edge="1">
                    <mxGeometry relative="1" as="geometry"/>
                </mxCell>
                <mxCell id="-Jtr6x9caaN1-tioL6mh-3" value="" style="rounded=0;whiteSpace=wrap;html=1;fillColor=#d5e8d4;strokeColor=#82b366;" parent="1" vertex="1">
                    <mxGeometry x="-680" y="90" width="440" height="230" as="geometry"/>
                </mxCell>
                <mxCell id="-Jtr6x9caaN1-tioL6mh-4" value="&lt;font style=&quot;font-size: 20px;&quot;&gt;Server (ESP32)&lt;/font&gt;" style="text;html=1;resizable=0;autosize=1;align=center;verticalAlign=middle;points=[];fillColor=none;strokeColor=none;rounded=0;" parent="1" vertex="1">
                    <mxGeometry x="-690" y="90" width="160" height="40" as="geometry"/>
                </mxCell>
                <mxCell id="-Jtr6x9caaN1-tioL6mh-15" style="edgeStyle=orthogonalEdgeStyle;rounded=0;orthogonalLoop=1;jettySize=auto;html=1;exitX=0;exitY=0.25;exitDx=0;exitDy=0;entryX=1;entryY=0.25;entryDx=0;entryDy=0;fontSize=15;" parent="1" source="-Jtr6x9caaN1-tioL6mh-5" target="-Jtr6x9caaN1-tioL6mh-3" edge="1">
                    <mxGeometry relative="1" as="geometry"/>
                </mxCell>
                <mxCell id="-Jtr6x9caaN1-tioL6mh-5" value="" style="rounded=0;whiteSpace=wrap;html=1;fillColor=#dae8fc;strokeColor=#6c8ebf;" parent="1" vertex="1">
                    <mxGeometry x="250" y="90" width="440" height="230" as="geometry"/>
                </mxCell>
                <mxCell id="-Jtr6x9caaN1-tioL6mh-6" value="&lt;font style=&quot;font-size: 20px;&quot;&gt;Client (App)&lt;br&gt;&lt;/font&gt;" style="text;html=1;resizable=0;autosize=1;align=center;verticalAlign=middle;points=[];fillColor=none;strokeColor=none;rounded=0;" parent="1" vertex="1">
                    <mxGeometry x="250" y="90" width="130" height="40" as="geometry"/>
                </mxCell>
                <mxCell id="-Jtr6x9caaN1-tioL6mh-14" style="edgeStyle=orthogonalEdgeStyle;rounded=0;orthogonalLoop=1;jettySize=auto;html=1;exitX=0;exitY=0.5;exitDx=0;exitDy=0;entryX=1;entryY=0.5;entryDx=0;entryDy=0;fontSize=15;shape=link;" parent="1" source="-Jtr6x9caaN1-tioL6mh-8" target="-Jtr6x9caaN1-tioL6mh-7" edge="1">
                    <mxGeometry relative="1" as="geometry"/>
                </mxCell>
                <mxCell id="-Jtr6x9caaN1-tioL6mh-8" value="Server" style="rounded=1;whiteSpace=wrap;html=1;fontSize=20;fillColor=#f5f5f5;fontColor=#333333;strokeColor=#666666;" parent="1" vertex="1">
                    <mxGeometry x="-430" y="182.5" width="120" height="60" as="geometry"/>
                </mxCell>
                <mxCell id="-Jtr6x9caaN1-tioL6mh-11" value="" style="group" parent="1" vertex="1" connectable="0">
                    <mxGeometry x="-640" y="150" width="120" height="125" as="geometry"/>
                </mxCell>
                <mxCell id="-Jtr6x9caaN1-tioL6mh-7" value="" style="rounded=1;whiteSpace=wrap;html=1;fontSize=20;fillColor=#f5f5f5;fontColor=#333333;strokeColor=#666666;" parent="-Jtr6x9caaN1-tioL6mh-11" vertex="1">
                    <mxGeometry width="120" height="125" as="geometry"/>
                </mxCell>
                <mxCell id="-Jtr6x9caaN1-tioL6mh-9" value="&lt;font style=&quot;font-size: 10px;&quot;&gt;data.json&lt;/font&gt;" style="shape=note;size=20;whiteSpace=wrap;html=1;fontSize=20;" parent="-Jtr6x9caaN1-tioL6mh-11" vertex="1">
                    <mxGeometry x="35" y="60" width="50" height="50" as="geometry"/>
                </mxCell>
                <mxCell id="-Jtr6x9caaN1-tioL6mh-10" value="&lt;font style=&quot;font-size: 15px;&quot;&gt;SPIFFS&lt;/font&gt;" style="text;html=1;resizable=0;autosize=1;align=center;verticalAlign=middle;points=[];fillColor=none;strokeColor=none;rounded=0;fontSize=10;" parent="-Jtr6x9caaN1-tioL6mh-11" vertex="1">
                    <mxGeometry x="20" y="10" width="80" height="30" as="geometry"/>
                </mxCell>
                <mxCell id="-Jtr6x9caaN1-tioL6mh-17" value="Request: &lt;i&gt;HTTP GET&lt;/i&gt;" style="text;html=1;resizable=0;autosize=1;align=center;verticalAlign=middle;points=[];fillColor=none;strokeColor=none;rounded=0;fontSize=15;" parent="1" vertex="1">
                    <mxGeometry x="-80" y="120" width="160" height="30" as="geometry"/>
                </mxCell>
                <mxCell id="-Jtr6x9caaN1-tioL6mh-18" value="Response: &lt;i&gt;data.json&lt;/i&gt;" style="text;html=1;resizable=0;autosize=1;align=center;verticalAlign=middle;points=[];fillColor=none;strokeColor=none;rounded=0;fontSize=15;" parent="1" vertex="1">
                    <mxGeometry x="-80" y="230" width="160" height="30" as="geometry"/>
                </mxCell>
            </root>
        </mxGraphModel>
    </diagram>
    <diagram id="-0zzz36s3piKTGTGTvwB" name="Server Softwarekomponenten">
        <mxGraphModel dx="609" dy="790" grid="1" gridSize="10" guides="1" tooltips="1" connect="1" arrows="1" fold="1" page="1" pageScale="1" pageWidth="827" pageHeight="1169" math="0" shadow="0">
            <root>
                <mxCell id="0"/>
                <mxCell id="1" parent="0"/>
                <mxCell id="Q-mnV4RnBUGMcqwWspMl-3" value="Softwarekomponenten" style="swimlane;fontStyle=0;childLayout=stackLayout;horizontal=1;startSize=30;horizontalStack=0;resizeParent=1;resizeParentMax=0;resizeLast=0;collapsible=1;marginBottom=0;fontSize=15;glass=0;" parent="1" vertex="1">
                    <mxGeometry x="280" y="230" width="230" height="180" as="geometry">
                        <mxRectangle x="280" y="230" width="60" height="30" as="alternateBounds"/>
                    </mxGeometry>
                </mxCell>
                <mxCell id="Q-mnV4RnBUGMcqwWspMl-4" value="ESPAsyncWebServer" style="text;strokeColor=#d79b00;fillColor=#ffe6cc;align=left;verticalAlign=middle;spacingLeft=4;spacingRight=4;overflow=hidden;points=[[0,0.5],[1,0.5]];portConstraint=eastwest;rotatable=0;fontSize=15;" parent="Q-mnV4RnBUGMcqwWspMl-3" vertex="1">
                    <mxGeometry y="30" width="230" height="30" as="geometry"/>
                </mxCell>
                <mxCell id="Q-mnV4RnBUGMcqwWspMl-5" value="EmonLib" style="text;strokeColor=#9673a6;fillColor=#e1d5e7;align=left;verticalAlign=middle;spacingLeft=4;spacingRight=4;overflow=hidden;points=[[0,0.5],[1,0.5]];portConstraint=eastwest;rotatable=0;fontSize=15;" parent="Q-mnV4RnBUGMcqwWspMl-3" vertex="1">
                    <mxGeometry y="60" width="230" height="30" as="geometry"/>
                </mxCell>
                <mxCell id="Q-mnV4RnBUGMcqwWspMl-7" value="NTP Client" style="text;strokeColor=#6c8ebf;fillColor=#dae8fc;align=left;verticalAlign=middle;spacingLeft=4;spacingRight=4;overflow=hidden;points=[[0,0.5],[1,0.5]];portConstraint=eastwest;rotatable=0;fontSize=15;" parent="Q-mnV4RnBUGMcqwWspMl-3" vertex="1">
                    <mxGeometry y="90" width="230" height="30" as="geometry"/>
                </mxCell>
                <mxCell id="Q-mnV4RnBUGMcqwWspMl-6" value="PowerData" style="text;strokeColor=#82b366;fillColor=#d5e8d4;align=left;verticalAlign=middle;spacingLeft=4;spacingRight=4;overflow=hidden;points=[[0,0.5],[1,0.5]];portConstraint=eastwest;rotatable=0;fontSize=15;" parent="Q-mnV4RnBUGMcqwWspMl-3" vertex="1">
                    <mxGeometry y="120" width="230" height="30" as="geometry"/>
                </mxCell>
                <mxCell id="Q-mnV4RnBUGMcqwWspMl-8" value="DataManager" style="text;strokeColor=#d6b656;fillColor=#fff2cc;align=left;verticalAlign=middle;spacingLeft=4;spacingRight=4;overflow=hidden;points=[[0,0.5],[1,0.5]];portConstraint=eastwest;rotatable=0;fontSize=15;" parent="Q-mnV4RnBUGMcqwWspMl-3" vertex="1">
                    <mxGeometry y="150" width="230" height="30" as="geometry"/>
                </mxCell>
                <mxCell id="Q-mnV4RnBUGMcqwWspMl-9" value="DataManager" style="swimlane;fontStyle=0;childLayout=stackLayout;horizontal=1;startSize=30;horizontalStack=0;resizeParent=1;resizeParentMax=0;resizeLast=0;collapsible=1;marginBottom=0;glass=0;fontSize=15;fillColor=#fff2cc;strokeColor=#d6b656;" parent="1" vertex="1">
                    <mxGeometry x="270" y="505" width="270" height="160" as="geometry">
                        <mxRectangle x="325" y="490" width="130" height="30" as="alternateBounds"/>
                    </mxGeometry>
                </mxCell>
                <mxCell id="Q-mnV4RnBUGMcqwWspMl-10" value="Der DataManager nimmt neue PowerData-Daten und wertet&#10;sie anhand des Timestamps aus. Ist ein neuer Datenpunkt &#10;mindestens 1h älter als der letzte, wird dieser dem LastDay-&#10;Array hinzugefügt. Nach 24h wird der Mittelwert über LastDay &#10;gebildet und LastWeek hinzugefügt." style="text;strokeColor=none;fillColor=none;align=left;verticalAlign=middle;spacingLeft=4;spacingRight=4;overflow=hidden;points=[[0,0.5],[1,0.5]];portConstraint=eastwest;rotatable=0;glass=0;fontSize=9;" parent="Q-mnV4RnBUGMcqwWspMl-9" vertex="1">
                    <mxGeometry y="30" width="270" height="70" as="geometry"/>
                </mxCell>
                <mxCell id="Q-mnV4RnBUGMcqwWspMl-11" value="Item 2" style="text;strokeColor=none;fillColor=none;align=left;verticalAlign=middle;spacingLeft=4;spacingRight=4;overflow=hidden;points=[[0,0.5],[1,0.5]];portConstraint=eastwest;rotatable=0;glass=0;fontSize=15;" parent="Q-mnV4RnBUGMcqwWspMl-9" vertex="1">
                    <mxGeometry y="100" width="270" height="30" as="geometry"/>
                </mxCell>
                <mxCell id="Q-mnV4RnBUGMcqwWspMl-12" value="Item 3" style="text;strokeColor=none;fillColor=none;align=left;verticalAlign=middle;spacingLeft=4;spacingRight=4;overflow=hidden;points=[[0,0.5],[1,0.5]];portConstraint=eastwest;rotatable=0;glass=0;fontSize=15;" parent="Q-mnV4RnBUGMcqwWspMl-9" vertex="1">
                    <mxGeometry y="130" width="270" height="30" as="geometry"/>
                </mxCell>
                <mxCell id="Q-mnV4RnBUGMcqwWspMl-13" value="PowerData" style="swimlane;fontStyle=0;childLayout=stackLayout;horizontal=1;startSize=30;horizontalStack=0;resizeParent=1;resizeParentMax=0;resizeLast=0;collapsible=1;marginBottom=0;glass=0;fontSize=15;fillColor=#d5e8d4;strokeColor=#82b366;" parent="1" vertex="1">
                    <mxGeometry x="620" y="270" width="270" height="140" as="geometry">
                        <mxRectangle x="325" y="490" width="130" height="30" as="alternateBounds"/>
                    </mxGeometry>
                </mxCell>
                <mxCell id="Q-mnV4RnBUGMcqwWspMl-14" value="Klasse die einen Datenpunkt repräsentiert, bestehend aus dem&#10;Messwert (Wirkleistung) und einem Unix-Timestamp, der den&#10;Zeitpunkt des Messwerts speichert." style="text;strokeColor=none;fillColor=none;align=left;verticalAlign=middle;spacingLeft=4;spacingRight=4;overflow=hidden;points=[[0,0.5],[1,0.5]];portConstraint=eastwest;rotatable=0;glass=0;fontSize=9;" parent="Q-mnV4RnBUGMcqwWspMl-13" vertex="1">
                    <mxGeometry y="30" width="270" height="50" as="geometry"/>
                </mxCell>
                <mxCell id="Q-mnV4RnBUGMcqwWspMl-15" value="Item 2" style="text;strokeColor=none;fillColor=none;align=left;verticalAlign=middle;spacingLeft=4;spacingRight=4;overflow=hidden;points=[[0,0.5],[1,0.5]];portConstraint=eastwest;rotatable=0;glass=0;fontSize=15;" parent="Q-mnV4RnBUGMcqwWspMl-13" vertex="1">
                    <mxGeometry y="80" width="270" height="30" as="geometry"/>
                </mxCell>
                <mxCell id="Q-mnV4RnBUGMcqwWspMl-16" value="Item 3" style="text;strokeColor=none;fillColor=none;align=left;verticalAlign=middle;spacingLeft=4;spacingRight=4;overflow=hidden;points=[[0,0.5],[1,0.5]];portConstraint=eastwest;rotatable=0;glass=0;fontSize=15;" parent="Q-mnV4RnBUGMcqwWspMl-13" vertex="1">
                    <mxGeometry y="110" width="270" height="30" as="geometry"/>
                </mxCell>
            </root>
        </mxGraphModel>
    </diagram>
</mxfile>